<svg width="58" height="58" viewBox="0 0 58 58" fill="none" xmlns="http://www.w3.org/2000/svg">
<g filter="url(#filter0_i_37_1273)">
<path fill-rule="evenodd" clip-rule="evenodd" d="M14.2782 41.1162C13.1614 39.722 12.8733 37.8379 13.5223 36.1737L25.3555 5.83111C26.3588 3.2584 29.2578 1.98617 31.8305 2.98949C34.4032 3.99281 35.6754 6.89176 34.6721 9.46446L25.9855 31.7386L49.6188 28.1244C52.3485 27.707 54.8997 29.5814 55.3172 32.3111C55.7346 35.0408 53.8602 37.592 51.1305 38.0095L18.9365 42.9329C17.1707 43.2029 15.3949 42.5104 14.2782 41.1162Z" fill="url(#paint0_linear_37_1273)"/>
</g>
<mask id="mask0_37_1273" style="mask-type:alpha" maskUnits="userSpaceOnUse" x="13" y="2" width="43" height="41">
<path fill-rule="evenodd" clip-rule="evenodd" d="M14.6499 41.0671C13.5332 39.6729 13.245 37.7888 13.8941 36.1245L25.7273 5.78197C26.7306 3.20927 29.6295 1.93703 32.2023 2.94036C34.775 3.94368 36.0472 6.84262 35.0439 9.41533L26.3572 31.6895L49.9905 28.0753C52.7202 27.6578 55.2715 29.5323 55.6889 32.2619C56.1064 34.9916 54.232 37.5429 51.5023 37.9603L19.3082 42.8838C17.5424 43.1538 15.7667 42.4613 14.6499 41.0671Z" fill="url(#paint1_linear_37_1273)"/>
</mask>
<g mask="url(#mask0_37_1273)">
<g filter="url(#filter1_i_37_1273)">
<path fill-rule="evenodd" clip-rule="evenodd" d="M23.2353 34.1902C22.1186 32.796 21.8304 30.9119 22.4795 29.2477L34.3127 -1.09492C35.316 -3.66762 38.2149 -4.93986 40.7876 -3.93654C43.3603 -2.93321 44.6326 -0.0342703 43.6293 2.53843L34.9426 24.8126L58.5759 21.1984C61.3056 20.7809 63.8569 22.6554 64.2743 25.3851C64.6918 28.1147 62.8173 30.666 60.0877 31.0835L27.8936 36.0069C26.1278 36.2769 24.3521 35.5844 23.2353 34.1902Z" fill="url(#paint2_linear_37_1273)" fill-opacity="0.6"/>
</g>
<rect x="28.2101" y="58.5094" width="22" height="40" transform="rotate(-128.695 28.2101 58.5094)" fill="url(#paint3_linear_37_1273)" fill-opacity="0.5"/>
</g>
<defs>
<filter id="filter0_i_37_1273" x="13.1805" y="2.64644" width="42.1948" height="40.344" filterUnits="userSpaceOnUse" color-interpolation-filters="sRGB">
<feFlood flood-opacity="0" result="BackgroundImageFix"/>
<feBlend mode="normal" in="SourceGraphic" in2="BackgroundImageFix" result="shape"/>
<feColorMatrix in="SourceAlpha" type="matrix" values="0 0 0 0 0 0 0 0 0 0 0 0 0 0 0 0 0 0 127 0" result="hardAlpha"/>
<feOffset dx="1" dy="1"/>
<feComposite in2="hardAlpha" operator="arithmetic" k2="-1" k3="1"/>
<feColorMatrix type="matrix" values="0 0 0 0 1 0 0 0 0 1 0 0 0 0 1 0 0 0 0.2 0"/>
<feBlend mode="normal" in2="shape" result="effect1_innerShadow_37_1273"/>
</filter>
<filter id="filter1_i_37_1273" x="22.1377" y="-4.27959" width="42.1948" height="40.344" filterUnits="userSpaceOnUse" color-interpolation-filters="sRGB">
<feFlood flood-opacity="0" result="BackgroundImageFix"/>
<feBlend mode="normal" in="SourceGraphic" in2="BackgroundImageFix" result="shape"/>
<feColorMatrix in="SourceAlpha" type="matrix" values="0 0 0 0 0 0 0 0 0 0 0 0 0 0 0 0 0 0 127 0" result="hardAlpha"/>
<feOffset dx="1" dy="1"/>
<feComposite in2="hardAlpha" operator="arithmetic" k2="-1" k3="1"/>
<feColorMatrix type="matrix" values="0 0 0 0 0 0 0 0 0 0 0 0 0 0 0 0 0 0 0.2 0"/>
<feBlend mode="normal" in2="shape" result="effect1_innerShadow_37_1273"/>
</filter>
<linearGradient id="paint0_linear_37_1273" x1="14.2782" y1="41.1162" x2="44.0973" y2="17.231" gradientUnits="userSpaceOnUse">
<stop stop-color="#FF6C3D"/>
<stop offset="1" stop-color="#F03026"/>
</linearGradient>
<linearGradient id="paint1_linear_37_1273" x1="14.6499" y1="41.0671" x2="44.4691" y2="17.1818" gradientUnits="userSpaceOnUse">
<stop stop-color="#FFD058"/>
<stop offset="1" stop-color="#FF3B30" stop-opacity="0"/>
</linearGradient>
<linearGradient id="paint2_linear_37_1273" x1="23.2353" y1="34.1902" x2="53.0545" y2="10.305" gradientUnits="userSpaceOnUse">
<stop/>
<stop offset="1" stop-opacity="0"/>
</linearGradient>
<linearGradient id="paint3_linear_37_1273" x1="39.2101" y1="58.5094" x2="39.2101" y2="98.5094" gradientUnits="userSpaceOnUse">
<stop/>
<stop offset="1" stop-opacity="0"/>
</linearGradient>
</defs>
</svg>
